Coordinates
version=1
nRows=9
nColumns=24
inDegrees=yes

Units are S.I. units (second, meters, Newtons, ...)
Angles are in degrees.

endheader
time	pelvis_tilt	pelvis_list	pelvis_rotation	pelvis_tx	pelvis_ty	pelvis_tz	hip_flexion_r	hip_adduction_r	hip_rotation_r	knee_angle_r	ankle_angle_r	subtalar_angle_r	mtp_angle_r	hip_flexion_l	hip_adduction_l	hip_rotation_l	knee_angle_l	ankle_angle_l	subtalar_angle_l	mtp_angle_l	lumbar_extension	lumbar_bending	lumbar_rotation
      1.50500000	      2.86507401	    -10.21543818	      7.98948618	      0.47601813	      0.91044352	      0.01759742	      2.77586441	     14.88224809	     -9.04176653	    -14.00386151	     18.42380639	     -4.98556091	     25.13265378	     17.84266129	     -8.07121874	      7.50067478	    -67.87477453	     17.15401322	     -3.24881624	     28.06026551	    -12.81512009	      8.98129398	     -5.19313693
      1.51000000	      2.95316216	    -10.06723059	      8.02847758	      0.48370199	      0.91127764	      0.01734954	      1.70550948	     14.89724592	     -8.52014827	    -13.20110668	     18.32289515	     -5.37485023	     24.94102393	     18.45745009	     -7.73832494	      7.49408960	    -67.16806116	     17.46203768	     -3.45574837	     27.99958426	    -12.94401375	      8.85492873	     -5.20015418
      1.51500000	      3.04531861	     -9.91313737	      8.06288469	      0.49137639	      0.91205881	      0.01708730	      0.62960612	     14.89761933	     -7.99935814	    -12.39924890	     18.20446021	     -5.76557681	     24.76301736	     19.03326222	     -7.40467219	      7.47753926	    -66.36980967	     17.73094629	     -3.66512672	     27.93685665	    -13.08193422	      8.72076682	     -5.20973742
      1.52000000	      3.14991213	     -9.75774864	      8.08963847	      0.49906234	      0.91279400	      0.01680841	     -0.46504028	     14.88971164	     -7.47193534	    -11.59332099	     18.06682966	     -6.16737885	     24.59733797	     19.55600125	     -7.08011792	      7.44613877	    -65.47470527	     17.96886394	     -3.86670820	     27.86616940	    -13.23367131	      8.58853349	     -5.21006489
      1.52500000	      3.25142518	     -9.59433989	      8.11046938	      0.50673857	      0.91346246	      0.01654581	     -1.55287301	     14.86468547	     -6.96770398	    -10.79768685	     17.91520395	     -6.55269645	     24.45988573	     20.04677451	     -6.75608768	      7.40586246	    -64.49011308	     18.17346324	     -4.06869438	     27.79168194	    -13.38711309	      8.44134454	     -5.21859619
      1.53000000	      3.35496028	     -9.43677547	      8.11433017	      0.51440303	      0.91407223	      0.01627261	     -2.63943560	     14.83370901	     -6.46611287	    -10.01092776	     17.75074485	     -6.91303867	     24.35033073	     20.49736392	     -6.44781799	      7.35249650	    -63.41385785	     18.34890984	     -4.25749745	     27.70910233	    -13.54716462	      8.30164656	     -5.21208382
      1.53500000	      3.46490203	     -9.28439257	      8.10463391	      0.52206575	      0.91461698	      0.01600544	     -3.72896007	     14.79799552	     -5.99125928	     -9.23432200	     17.57593565	     -7.25115796	     24.27254114	     20.90692561	     -6.16268627	      7.27662651	    -62.25364577	     18.49852711	     -4.43664863	     27.61428968	    -13.71656076	      8.16638012	     -5.19479494
      1.54000000	      3.56321935	     -9.12969932	      8.08409059	      0.52970917	      0.91507831	      0.01576605	     -4.79142813	     14.74897845	     -5.55609536	     -8.48651840	     17.39660012	     -7.54595396	     24.23003663	     21.29290224	     -5.88412297	      7.19551630	    -61.00687252	     18.61781595	     -4.60484899	     27.51371981	    -13.87920035	      8.02025250	     -5.17197719
      1.54500000	      3.66429591	     -8.98667620	      8.03870867	      0.53734180	      0.91547990	      0.01554772	     -5.84819897	     14.69997712	     -5.14187020	     -7.75643384	     17.21132354	     -7.79948752	     24.22429594	     21.64100109	     -5.64037405	      7.08320793	    -59.67749291	     18.71054810	     -4.76200295	     27.39924830	    -14.04918396	      7.88416417	     -5.12476590
